<svg version="1.1" id="svg2424" xmlns:x="ns_extend;" xmlns:i="ns_ai;" xmlns:graph="ns_graphs;" xmlns:svg="http://www.w3.org/2000/svg" xmlns="http://www.w3.org/2000/svg" xmlns:xlink="http://www.w3.org/1999/xlink" x="0px" y="0px" viewBox="0 0 565 166.2" style="enable-background:new 0 0 565 166.2;" xml:space="preserve">
 <style type="text/css">
  .st0{fill-rule:evenodd;clip-rule:evenodd;fill:#4D4D4D;}
	.st1{fill-rule:evenodd;clip-rule:evenodd;fill:#1793D1;}
	.st2{fill:#1793D1;}
 </style>
 <metadata>
  <sfw xmlns="ns_sfw;">
   <slices>
   </slices>
   <sliceSourceBounds bottomLeftOrigin="true" height="166.2" width="565" x="21.8" y="16.6">
   </sliceSourceBounds>
  </sfw>
 </metadata>
 <g id="layer1" transform="translate(-34.777313,-129.80241)">
  <g id="g2424" transform="matrix(0.8746356,0,0,0.8746356,14.730518,23.408954)">
   <g id="g2809" transform="matrix(0.6378586,0,0,0.6378586,36.486487,2.17139)">
    <path id="path2284" class="st0" d="M299.2,279.3c-14.5,0-26.5,2.9-31.1,4.6l-4.8,25.8c0,0.1,23.8-6.3,34.3-6
				c17.4,0.6,19,6.6,18.7,14.8c0.3,0.5-4.5-7.3-19.5-7.6c-18.9-0.3-45.7,6.7-45.7,35.3c-0.5,32.2,24,41.6,40.7,41.8
				c15-0.3,22.1-5.7,25.9-8.6c5.1-5.3,10.9-10.6,16.4-17c-5.2,9.5-9.8,16.1-14.5,21.1v4.2l22.8-3.8l0.2-62.1
				C342.4,313,347.7,279.4,299.2,279.3z M295.9,333.4c9.5,0.1,20.3,4.8,20.3,16c0,10.2-12.8,15.7-21.2,15.6
				c-8.4-0.1-19.5-6.6-19.5-16.5C275.8,339.6,286.1,333.1,295.9,333.4z">
    </path>
    <path id="path2286" class="st0" d="M357.7,285l-0.2,102.8l26.6-5.1l0-58.3c0-8.7,12.4-18.8,28-18.7c3.3-6,9.5-21.2,11-24.7
				C388.5,281,388,291,382,296c-0.1-9.5,0-15.1,0-15.1L357.7,285L357.7,285z">
    </path>
    <path id="path2288" class="st0" d="M507.5,298.5c-0.3-0.1-13.9-15.9-41.3-16.1c-25.7-0.4-54.4,9.5-54.9,52.5
				c0.2,37.8,27.6,52.6,55,52.9c29.3,0.3,41-18.3,41.7-18.8c-3.5-3-16.6-16-16.6-16s-8.2,11.7-24.1,11.8
				c-15.9,0.2-29.7-12.3-29.9-29.6c-0.2-17.3,12.7-26.7,30-27.5c15,0,23.6,9.7,23.6,9.7L507.5,298.5L507.5,298.5z">
    </path>
    <path id="path2290" class="st0" d="M541,249l-25.1,5.9l0.2,133.9l24.7-4.5l0.3-63c0.1-6.6,9.6-16.8,25.4-16.4
				c15.2,0.2,18.6,10.1,18.5,11.4l0.4,73l24.4-4.3l0.1-77.4c0.2-7.4-16.3-23.2-42.8-23.3c-12.6,0-19.5,2.9-23.1,5
				c-6.1,4.7-13,9.2-19.8,14.9c6.3-8.1,11.6-13.7,16.7-17.8L541,249L541,249z">
    </path>
   </g>
   <g id="g5326" transform="matrix(0.9443373,0,0.01336345,0.9443373,78.345657,-412.48879)">
    <path id="path2292" class="st1" d="M373.4,609.7l7.7-1.9l-0.9,91.2l-7.8,1.3L373.4,609.7z">
    </path>
    <path id="path2294" class="st1" d="M393.8,636.9l6.8-3l-0.9,65.4l-6.5,1.3L393.8,636.9z M392.6,613.3l5.5-4.4l4.4,5l-5.5,4.5
				L392.6,613.3z">
    </path>
    <path id="path2296" class="st1" d="M413.2,635.7l7.7-1.6l-0.2,13.7c0,0.6,4.4-15.3,24.7-14.9c19.7,0.1,22.7,15.3,22.5,18.8
				l-0.4,48.1l-6.7,1.5l0.6-47.5c0.1-1.4-2.9-13.1-16.8-13.2c-13.9,0-23.7,10.1-23.8,16.6l-0.5,41.8l-7.8,2L413.2,635.7L413.2,635.7
				z">
    </path>
    <path id="path2298" class="st1" d="M534.3,700.1l-7.7,1.6l0.2-13.7c0-0.6-4.4,15.3-24.7,14.9c-19.7-0.1-22.7-15.3-22.5-18.8
				L480,636l8.2-1.6l-0.5,47.5c0,1.3,1.4,13.3,15.3,13.3c13.9,0,23.8-8.4,24-21l0.4-37.5l7.6-1.9L534.3,700.1L534.3,700.1z">
    </path>
    <path id="path2300" class="st1" d="M550.2,635.2l-5.4,4.2l20.2,26.9l-22.4,31.1l5.6,4.2l21-28.9l20.9,29.6l5.3-4.2l-22.4-31.6
				l18.6-25.6l-5.5-4.7l-16.9,23.7L550.2,635.2L550.2,635.2z">
    </path>
   </g>
   <path id="path2518" class="st1" d="M117.9,121.6c-8.5,20.7-13.6,34.3-23,54.4c5.8,6.1,12.9,13.2,24.4,21.3
			c-12.4-5.1-20.8-10.2-27.1-15.5c-12.1,25.1-30.9,61-69.2,129.8c30.1-17.4,53.5-28.1,75.2-32.2c-0.9-4-1.5-8.4-1.4-12.9l0-1
			c0.5-19.3,10.5-34.1,22.4-33.1s21.1,17.5,20.7,36.8c-0.1,3.6-0.5,7.1-1.2,10.4c21.5,4.2,44.6,14.9,74.3,32
			c-5.9-10.8-11.1-20.5-16.1-29.8c-7.9-6.1-16.1-14-32.8-22.6c11.5,3,19.7,6.4,26.2,10.3C139.4,175.1,135.3,162.5,117.9,121.6z">
   </path>
   <g id="text2634">
    <path id="path3945" class="st2" d="M659.5,244.8v-5.3h-2v-0.7h4.8v0.7h-2v5.3H659.5">
    </path>
    <path id="path3947" class="st2" d="M663.1,244.8v-6h1.2l1.4,4.3c0.1,0.4,0.2,0.7,0.3,0.9c0.1-0.2,0.2-0.5,0.3-1l1.4-4.2h1.1v6
				h-0.8v-5.1l-1.8,5.1h-0.7l-1.7-5.1v5.1H663.1">
    </path>
   </g>
   <g id="text2638">
    <path id="path3940" class="st2" d="M213.8,294.7v-5.2h-1.9v-0.7h4.7v0.7h-2v5.2H213.8">
    </path>
    <path id="path3942" class="st2" d="M217.4,294.7v-5.9h1.2l1.4,4.2c0.1,0.4,0.2,0.7,0.3,0.9c0.1-0.2,0.2-0.5,0.3-0.9l1.4-4.1h1.1
				v5.9h-0.8v-4.9l-1.7,4.9h-0.7l-1.7-5v5H217.4">
    </path>
   </g>
  </g>
 </g>
</svg>