<!DOCTYPE svg PUBLIC "-//W3C//DTD SVG 1.1//EN" "http://www.w3.org/Graphics/SVG/1.1/DTD/svg11.dtd">
<!-- Uploaded to: SVG Repo, www.svgrepo.com, Transformed by: SVG Repo Mixer Tools -->
<svg fill="#4da5f8" version="1.1" id="Capa_1" xmlns="http://www.w3.org/2000/svg" xmlns:xlink="http://www.w3.org/1999/xlink" width="64px" height="64px" viewBox="0 0 585.918 585.918" xml:space="preserve" data-darkreader-inline-fill="" style="--darkreader-inline-fill: var(--darkreader-background-4da5f8, #06539c);">
<g id="SVGRepo_bgCarrier" stroke-width="0"/>
<g id="SVGRepo_tracerCarrier" stroke-linecap="round" stroke-linejoin="round"/>
<g id="SVGRepo_iconCarrier"> <g> <path d="M69.497,259.208c-4.246,0.14-7.104,0.688-8.604,1.2v30.347c1.762,0.446,3.946,0.577,6.956,0.562 c11.218-0.082,18.245-6.512,18.245-17.244C86.093,264.416,80.046,258.859,69.497,259.208z"/> <path d="M357.396,535.335c0.776,0.052,1.542,0.114,2.329,0.114h177.39c20.745,0,37.627-16.883,37.627-37.627V86.604 c0-20.746-16.882-37.628-37.627-37.628h-177.39c-0.787,0-1.553,0.074-2.329,0.124V0L11.176,46.208v492.308l346.22,47.402V535.335z M359.726,70.479h177.39c8.893,0,16.125,7.232,16.125,16.125v411.218c0,8.892-7.232,16.127-16.125,16.127h-177.39 c-0.797,0-1.563-0.117-2.329-0.231V317.695l52.278,14.792l27.79-61.282l-42.515-2.446l53.544-3.457l41.67,3.226l-37.555,2.161 l24.851,54.829l72.379-20.479l-20.955-38.289l0.011-0.2l-0.138-0.01l-0.12-0.241l-1.695,0.107l-20.95-1.617v-42.597H382.357v42.418 l-24.951,1.601V70.72C358.162,70.607,358.929,70.479,359.726,70.479z M387.716,264.266v-36.694h112.885v36.812l-52.075-4.011 L387.716,264.266z M98.789,298.319c-7.451,7.68-18.325,11.022-30.795,10.929c-2.743-0.016-5.197-0.185-7.095-0.509v36.757 l-20.158-0.746v-99.744c6.197-1.488,15.023-2.806,27.661-3.401c13.045-0.614,22.513,1.75,28.945,7.105 c6.216,5.118,10.439,13.824,10.439,24.275C107.787,283.434,104.579,292.313,98.789,298.319z M180.538,349.878l-26.405-48.684 l-9.036,11.554v35.822l-22.958-0.84V239.882l22.958-1.063v48.529l0.47-0.005c2.326-4.268,4.816-8.218,7.16-12.187l24.386-37.824 l31.055-1.441l-36.872,49.374l38.915,65.696L180.538,349.878z M318.996,349.243c-9.254,2.62-26.467,6.012-43.286,5.376 c-22.625-0.84-38.56-6.846-49.456-17.586c-10.719-10.23-16.532-25.375-16.367-42.278c0.173-38.273,28.506-61.484,68.822-63.387 c16.496-0.779,29.467,1.722,35.946,4.371l-6.278,22.583c-7.191-2.709-16.038-4.801-30.045-4.354 c-23.425,0.742-40.648,13.836-40.648,39.278c0,24.229,15.583,38.858,38.59,39.373c6.573,0.147,11.875-0.457,14.158-1.485v-25.491 l-19.56-0.073v-21.216l48.124-0.52V349.243z"/> <polygon points="417.449,343.962 360.263,327.794 360.263,384.823 445.219,410.966 445.219,281.87 433.203,309.221 "/> <polygon points="460.441,309.747 450.132,283.51 450.132,410.966 535.104,384.823 535.104,319.867 473.014,337.432 "/> </g> </g>
</svg>